<?xml version="1.0" encoding="UTF-8"?>
<svg xmlns="http://www.w3.org/2000/svg" version="1.1" xmlns:xlink="http://www.w3.org/1999/xlink" viewBox="0 0 680 400">
  <!-- Generator: Adobe Illustrator 29.6.1, SVG Export Plug-In . SVG Version: 2.1.1 Build 9)  -->
  <g id="Layer_1" display="none">
    <image width="1254" height="1254" transform="translate(138.903 -1.097) scale(.321)" xlink:href="Dreambid_logo2-1.png"/>
  </g>
  <g id="Layer_3">
    <rect x="-13.136" y="-2.146" width="713.01" height="411.029" fill="#0e2138"/>
    <text transform="translate(91.408 242.083)" fill="#fff" font-family="Poppins-Light, Poppins" font-size="96" font-weight="300"><tspan x="0" y="0">Dream</tspan></text>
  </g>
  <g id="Layer_2">
    <g>
      <path d="M442.939,214.678l13.655,6.782s2.605,1.263.789,3.473c-.158.474-.789,1.973-4.104.474s-13.26-6.472-13.26-6.472c0,0-2.052-1.263-1.026-3.394.395-.631,1.578-2.038,3.947-.862Z" fill="#ffe02c"/>
      <g>
        <path d="M464.882,204.805l-4.499,10.024s-1.026,1.579-.395,2.289c.316.789-.079,3.631-3.394,2.131s-13.182-6.472-13.182-6.472c0,0-1.894-.789-.789-3.078.71-.474,1.026-.661,1.658-1.948s5.446-10.444,5.446-10.444c0,0,.474-1.026-.395-1.421-.158-.474-1.026-1.815.947-2.92.71-.237,2.18.158,3.3.789s12.092,6.078,12.092,6.078c0,0,2.496,1.301.631,3.631-.316.316-.867.107-1.421,1.342Z" fill="#ff2e2e"/>
        <g>
          <path d="M442.939,177.732h26.205s18.312-1.736,22.969,14.523c.316,1.421,2.684,11.208-7.972,19.654-5.209-1.736-9.63-3.394-9.63-3.394,0,0-1.342-.868.079-1.421s10.34-4.499,6.709-14.129c-.395-.71-2.131-5.446-10.577-5.92-7.498.158-15.471-.158-15.471-.158l13.182,6.63s2.763,1.263,1.263,3.71c-.316.631-.868,2.131-4.104.553s-13.418-6.63-13.418-6.63c0,0-2.842-1.342-.631-4.262-5.683-.079-8.603-.079-8.603-.079,0,0-1.263.316-1.263-1.421v-6.472s.158-1.184,1.263-1.184Z" fill="#ffe02c"/>
          <path d="M466.54,207.884l20.838,7.42s13.182,3.947,10.103,16.418c-.237,1.342-2.999,14.208-24.311,13.813-.237-1.105-1.184-4.341-3.157-6.157,3.789-.71,14.839-3.078,15.471-11.208,0-.947.316-5.131-6.551-7.656s-15.471-6.236-15.471-6.236c0,0-1.815-1.026-.868-2.368s1.894-3.631,1.894-3.631c0,0,.782-.847,2.052-.395Z" fill="#ffe02c"/>
          <path d="M431.1,237.562l32.678.316s.71-4.42-4.262-4.578c-4.973-.158-23.995,0-23.995,0,0,0-4.657,0-4.42,4.262Z" fill="#ffe02c"/>
          <path d="M470.723,245.543h-46.648s-.395-6.087,8.288-6.166,30.862,0,30.862,0c0,0,6.788-.298,7.498,6.166Z" fill="#ffe02c"/>
          <rect x="503.637" y="200.504" width="9.945" height="40.255" fill="#ffdd15"/>
          <circle cx="508.61" cy="189.374" r="6.006" fill="#ffdd15"/>
          <rect x="553.719" y="182.152" width="10.064" height="58.606" fill="#ffda00"/>
          <path d="M553.719,203.937s-8.761-10.064-23.443-3.434c-2.25,1.776-15.155,9.472-9.235,28.652,1.421,3.197,4.973,13.26,21.193,13.142,2.368-.355,7.459-1.184,11.484-5.801v-11.84s-2.723,7.814-10.064,8.643c-1.066.237-11.84,1.776-14.326-10.774-.118-2.368-1.421-10.251,8.406-14.775.947-.38,11.958-3.34,15.984,8.855" fill="#ffda00"/>
        </g>
      </g>
    </g>
  </g>
</svg>